<?xml version="1.0" encoding="iso-8859-1"?>
<!-- Uploaded to: SVG Repo, www.svgrepo.com, Generator: SVG Repo Mixer Tools -->
<!DOCTYPE svg PUBLIC "-//W3C//DTD SVG 1.1//EN" "http://www.w3.org/Graphics/SVG/1.1/DTD/svg11.dtd">
<svg fill="#000000" version="1.1" id="Capa_1" xmlns="http://www.w3.org/2000/svg" xmlns:xlink="http://www.w3.org/1999/xlink" 
	 width="800px" height="800px" viewBox="0 0 90.934 90.934"
	 xml:space="preserve">
<g>
	<path d="M75.467,10.461l3.667-6.969c0.392-0.738,0.363-1.627-0.067-2.34C78.635,0.437,77.861,0,77.027,0H13.716
		c-1.314,0-2.38,1.066-2.38,2.383l0.057,88.551h11.434V18.571h-6.729V4.764h56.985l-2.409,4.578
		c-0.361,0.688-0.365,1.51-0.007,2.203L74.3,18.57H27.514v72.363h32.263h19.82V25.959V18.53L75.467,10.461z M67.48,66.134
		c-1.521,1.521-3.278,2.737-5.226,3.613l-1.368,0.616l-2.681-5.957l1.368-0.614c1.222-0.552,2.328-1.316,3.289-2.276
		c2.095-2.095,3.248-4.886,3.248-7.857c0-2.971-1.153-5.762-3.248-7.856c-2.096-2.096-4.887-3.249-7.858-3.249
		s-5.763,1.153-7.856,3.248c-3.817,3.816-4.299,9.729-1.356,14.073l4.705-4.705v14.317h-14.32l4.944-4.943
		c-5.492-6.973-4.98-16.973,1.408-23.361c3.327-3.327,7.758-5.16,12.475-5.16c4.719,0,9.148,1.833,12.477,5.16
		C74.359,48.061,74.359,59.255,67.48,66.134z"/>
</g>
</svg>